<svg width="666" height="193" viewBox="0 0 666 193" fill="none" xmlns="http://www.w3.org/2000/svg">
<path d="M0 84.7109V16C0 7.16344 7.16344 0 16 0H177C185.837 0 193 7.16344 193 16V177C193 185.837 185.837 193 177 193H135.161C131.175 193 127.333 191.513 124.387 188.829L102.971 169.323C99.6417 166.291 97.7445 161.996 97.7445 157.494V139.747C97.7445 135.22 95.8269 130.905 92.4671 127.872L66.9543 104.835C64.014 102.181 60.1932 100.711 56.2317 100.711H16C7.16344 100.711 0 93.5474 0 84.7109Z" fill="#1C7C54"/>
<path d="M235.465 145C233.822 145 233 144.279 233 142.838C233 142.262 233.145 141.637 233.435 140.965L271.719 50.7471C272.299 49.3059 272.927 48.3451 273.604 47.8647C274.281 47.2882 275.248 47 276.504 47H284.48C285.834 47 286.801 47.2882 287.381 47.8647C288.057 48.3451 288.686 49.3059 289.266 50.7471L327.55 140.965C327.84 141.637 327.985 142.262 327.985 142.838C327.985 144.279 327.163 145 325.52 145H312.903C311.646 145 310.728 144.856 310.148 144.568C309.665 144.183 309.181 143.463 308.698 142.406L300.432 122.229H260.408L252.287 142.406C251.804 143.463 251.272 144.183 250.692 144.568C250.208 144.856 249.338 145 248.082 145H235.465ZM295.791 108.826L280.42 71.0676L265.048 108.826H295.791Z" fill="#1C7C54"/>
<path d="M353.42 145C351.487 145 350.085 144.568 349.215 143.703C348.441 142.838 348.055 141.541 348.055 139.812V52.3324C348.055 50.5069 348.441 49.1618 349.215 48.2971C350.085 47.4324 351.487 47 353.42 47H361.106C363.04 47 364.441 47.4324 365.311 48.2971C366.182 49.1618 366.617 50.5069 366.617 52.3324V139.812C366.617 141.541 366.182 142.838 365.311 143.703C364.538 144.568 363.136 145 361.106 145H353.42Z" fill="#1C7C54"/>
<path d="M438.848 145C436.914 145 435.512 144.616 434.642 143.847C433.869 143.078 433.482 141.829 433.482 140.1V123.671H387.512C384.999 123.671 383.742 122.518 383.742 120.212V114.303C383.742 112.958 383.887 111.949 384.177 111.276C384.467 110.508 384.999 109.595 385.772 108.538L434.642 49.7382C435.512 48.6814 436.286 47.9608 436.962 47.5765C437.639 47.1922 438.703 47 440.153 47H446.533C448.467 47 449.869 47.4324 450.739 48.2971C451.609 49.1618 452.044 50.5069 452.044 52.3324V109.691H462.195C464.129 109.691 465.482 110.124 466.255 110.988C467.029 111.757 467.416 113.054 467.416 114.879V118.771C467.416 120.5 467.029 121.749 466.255 122.518C465.482 123.286 464.129 123.671 462.195 123.671H452.044V140.1C452.044 141.829 451.609 143.078 450.739 143.847C449.965 144.616 448.564 145 446.533 145H438.848ZM436.527 109.691V68.7618L403.174 109.691H436.527Z" fill="#F0B22C"/>
<path d="M489.927 145C487.993 145 486.592 144.568 485.721 143.703C484.948 142.838 484.561 141.541 484.561 139.812V52.3324C484.561 50.5069 484.948 49.1618 485.721 48.2971C486.592 47.4324 487.993 47 489.927 47H550.253C552.187 47 553.492 47.3843 554.169 48.1529C554.942 48.9216 555.329 50.2186 555.329 52.0441V55.9353C555.329 57.7608 554.942 59.1059 554.169 59.9706C553.492 60.7392 552.187 61.1235 550.253 61.1235H503.123V89.0824H537.347C539.28 89.0824 540.634 89.4667 541.407 90.2353C542.181 91.0039 542.567 92.301 542.567 94.1265V97.7294C542.567 99.5549 542.181 100.9 541.407 101.765C540.634 102.533 539.28 102.918 537.347 102.918H503.123V131.021H550.108C552.042 131.021 553.395 131.453 554.169 132.318C554.942 133.086 555.329 134.383 555.329 136.209V140.1C555.329 141.829 554.942 143.078 554.169 143.847C553.395 144.616 552.042 145 550.108 145H489.927Z" fill="#1C7C54"/>
<path d="M573.48 145C571.837 145 571.015 144.279 571.015 142.838C571.015 142.262 571.16 141.637 571.45 140.965L609.734 50.7471C610.314 49.3059 610.943 48.3451 611.619 47.8647C612.296 47.2882 613.263 47 614.52 47H622.496C623.849 47 624.816 47.2882 625.396 47.8647C626.073 48.3451 626.701 49.3059 627.281 50.7471L665.565 140.965C665.855 141.637 666 142.262 666 142.838C666 144.279 665.178 145 663.535 145H650.918C649.662 145 648.743 144.856 648.163 144.568C647.68 144.183 647.196 143.463 646.713 142.406L638.447 122.229H598.423L590.302 142.406C589.819 143.463 589.287 144.183 588.707 144.568C588.224 144.856 587.354 145 586.097 145H573.48ZM633.807 108.826L618.435 71.0676L603.064 108.826H633.807Z" fill="#1C7C54"/>
<circle cx="36" cy="70" r="10" fill="#F0B22C"/>
<circle cx="114" cy="70" r="10" fill="#F0B22C"/>
<circle cx="75" cy="70" r="10" transform="rotate(-90 75 70)" fill="#F0B22C"/>
<circle cx="114" cy="31" r="10" transform="rotate(180 114 31)" fill="#F0B22C"/>
<circle cx="153" cy="31" r="10" transform="rotate(180 153 31)" fill="#F0B22C"/>
<circle cx="153" cy="70" r="10" fill="#F0B22C"/>
<path d="M14.8027 156.705C24.5552 156.706 32.4626 164.613 32.4629 174.365V186.913C32.463 188.468 32.9809 189.979 33.9346 191.207L35.1924 192.826H21.4072C20.7863 190.93 20.463 188.935 20.4629 186.913V174.365C20.4626 171.24 17.9278 168.706 14.8027 168.705H0V156.705H14.8027ZM30.2031 135.329C34.8077 135.329 39.2567 137.003 42.7207 140.036L50.1406 146.534L50.5215 146.877C54.4049 150.468 56.6229 155.524 56.623 160.828V176.951C56.6233 178.898 57.4347 180.759 58.8623 182.083L70.4443 192.826H52.7988L50.7012 190.881C46.8256 187.286 44.6233 182.237 44.623 176.951V160.828C44.6229 158.937 43.8574 157.131 42.5117 155.817L42.2344 155.562L34.8145 149.063C33.5385 147.946 31.8992 147.329 30.2031 147.329H0V135.329H30.2031ZM2.02441 111.687L2.26953 111.896C3.51553 112.91 5.07701 113.468 6.69043 113.468H45.8691C50.3562 113.468 54.6997 115.057 58.1279 117.952L74.6191 131.879L75.0146 132.223C79.045 135.821 81.3603 140.976 81.3604 146.396V166.117C81.3606 168.11 82.2107 170.01 83.6973 171.338L107.753 192.826H89.7402L75.7031 180.287C71.6678 176.683 69.3606 171.528 69.3604 166.117V146.396C69.3603 144.463 68.5609 142.622 67.1641 141.304L66.877 141.047L50.3848 127.12C49.122 126.054 47.5219 125.468 45.8691 125.468H6.69043C4.38601 125.468 2.12149 125.047 0 124.249V109.877L2.02441 111.687Z" fill="#1C7C54"/>
</svg>
